HIERARCHY
ROOT Hips
{
 OFFSET 0.000000 0.000000 0.000000
 CHANNELS 6 Xposition Yposition Zposition Yrotation Xrotation Zrotation
 JOINT Chest
 {
  OFFSET 0.000000 10.388337 0.005184
  CHANNELS 3 Yrotation Xrotation Zrotation
  JOINT Chest2
  {
   OFFSET 0.000000 10.458247 -0.010579
   CHANNELS 3 Yrotation Xrotation Zrotation
   JOINT Chest3
   {
    OFFSET 0.000000 10.415828 0.000000
    CHANNELS 3 Yrotation Xrotation Zrotation
    JOINT Chest4
    {
     OFFSET 0.000000 10.405206 0.000000
     CHANNELS 3 Yrotation Xrotation Zrotation
     JOINT Neck
     {
      OFFSET 0.000000 15.720090 0.000000
      CHANNELS 3 Yrotation Xrotation Zrotation
      JOINT Head
      {
       OFFSET 0.000000 9.732643 -0.022378
       CHANNELS 3 Yrotation Xrotation Zrotation
       End Site
       {
        OFFSET 0.000000 18.603619 -0.011814
       }
      }
     }
     JOINT RightCollar
     {
      OFFSET -3.167735 10.388953 0.000000
      CHANNELS 3 Yrotation Xrotation Zrotation
      JOINT RightShoulder
      {
       OFFSET -14.584825 0.000000 0.000000
       CHANNELS 3 Yrotation Xrotation Zrotation
       JOINT RightElbow
       {
        OFFSET 0.000000 -31.921689 0.000000
        CHANNELS 3 Yrotation Xrotation Zrotation
        JOINT RightWrist
        {
         OFFSET 0.000000 -25.835217 0.000000
         CHANNELS 3 Yrotation Xrotation Zrotation
         End Site
         {
          OFFSET 0.000000 -19.128920 0.000000
         }
        }
       }
      }
     }
     JOINT LeftCollar
     {
      OFFSET 3.167735 10.388953 0.000000
      CHANNELS 3 Yrotation Xrotation Zrotation
      JOINT LeftShoulder
      {
       OFFSET 14.584825 0.000000 0.000000
       CHANNELS 3 Yrotation Xrotation Zrotation
       JOINT LeftElbow
       {
        OFFSET 0.000000 -31.921689 0.000000
        CHANNELS 3 Yrotation Xrotation Zrotation
        JOINT LeftWrist
        {
         OFFSET 0.000000 -25.835217 0.000000
         CHANNELS 3 Yrotation Xrotation Zrotation
         End Site
         {
          OFFSET 0.000000 -19.128920 0.000000
         }
        }
       }
      }
     }
    }
   }
  }
 }
 JOINT RightHip
 {
  OFFSET -8.403278 -0.025659 -0.002592
  CHANNELS 3 Yrotation Xrotation Zrotation
  JOINT RightKnee
  {
   OFFSET 0.000000 -44.040977 0.002477
   CHANNELS 3 Yrotation Xrotation Zrotation
   JOINT RightAnkle
   {
    OFFSET 0.000000 -42.951162 0.004189
    CHANNELS 3 Yrotation Xrotation Zrotation
    JOINT RightToe
    {
     OFFSET 0.000000 -5.494238 12.197485
     CHANNELS 3 Yrotation Xrotation Zrotation
     End Site
     {
      OFFSET 0.000000 -1.538716 6.371628
     }
    }
   }
  }
 }
 JOINT LeftHip
 {
  OFFSET 8.403278 -0.025659 -0.002592
  CHANNELS 3 Yrotation Xrotation Zrotation
  JOINT LeftKnee
  {
   OFFSET 0.000000 -44.040977 0.002477
   CHANNELS 3 Yrotation Xrotation Zrotation
   JOINT LeftAnkle
   {
    OFFSET 0.000000 -42.951162 0.004189
    CHANNELS 3 Yrotation Xrotation Zrotation
    JOINT LeftToe
    {
     OFFSET 0.000000 -5.494238 12.197485
     CHANNELS 3 Yrotation Xrotation Zrotation
     End Site
     {
      OFFSET 0.000000 -1.538716 6.371628
     }
    }
   }
  }
 }
}
MOTION
Frames: 5
Frame Time: 0.008333
29.120265 84.690184 380.867349 76.724470 -17.940166 1.074487 -7.754038 2.336855 1.205357 -0.317900 0.135749 0.077967 -0.556137 0.237815 0.135930 -6.498220 2.869801 1.448534 16.435667 21.948990 3.927195 28.640925 5.524072 2.737905 -2.211862 -4.218253 -6.669292 -3.948555 -41.681257 -29.636363 -56.013130 -37.439432 103.728374 -27.692324 3.234483 -13.140894 1.358307 4.253593 12.874846 26.841907 -22.760405 35.069935 39.995874 -21.747534 -26.273775 8.089209 -36.238296 23.148020 0.083394 9.349025 -11.884551 15.674465 42.901916 6.907405 -6.141824 -33.187069 1.241241 -0.175274 -0.799412 1.160800 5.498287 -9.994482 25.050678 16.036745 42.792305 10.191302 -2.377789 -8.426470 -11.742525 0.666561 2.080439 2.537157
29.497468 84.472764 380.535540 77.038434 -17.977578 0.727324 -7.664872 2.286443 1.136142 -0.318166 0.131189 0.080876 -0.556628 0.229856 0.141045 -6.511336 2.782855 1.515001 16.423143 21.897430 3.936806 28.618441 5.426277 2.748288 -2.476184 -4.123424 -6.282803 -4.641543 -40.948027 -28.083178 -55.085426 -36.690663 104.246487 -28.842674 0.975165 -13.376776 1.363431 4.043432 13.160482 26.156113 -23.225646 35.762141 40.429771 -22.914561 -27.538019 8.121370 -35.374968 22.685396 -0.088261 9.541444 -11.829210 15.611076 43.118234 6.847926 -6.319869 -33.422065 1.276935 -0.213311 -0.814320 1.183639 6.047346 -10.741963 25.339570 15.179603 43.211475 10.100628 -2.550160 -8.686788 -12.902710 0.649176 1.954681 3.135589
29.928265 84.277192 380.213404 77.109028 -18.220335 0.371877 -7.206710 2.495169 1.112538 -0.314599 0.124930 0.082977 -0.550544 0.218969 0.144789 -6.487204 2.676337 1.577670 16.364626 21.812534 3.957196 28.511578 5.260112 2.782801 -2.748178 -4.102656 -5.812259 -5.349380 -40.162432 -26.695086 -54.414588 -36.296825 104.785465 -30.202163 -1.078574 -13.663216 1.326907 3.848808 13.403083 25.467755 -23.693806 36.486174 40.695828 -24.241209 -28.967222 8.125758 -34.371948 21.749680 0.063750 10.011555 -11.643757 15.506511 43.264321 6.731816 -6.494711 -33.624140 1.310760 -0.290402 -0.845300 1.199838 6.829870 -11.443366 25.682561 14.256084 44.043841 10.092088 -2.715695 -8.901617 -13.574974 0.521016 1.533810 3.214300
30.359760 84.086546 379.887348 77.330549 -18.360058 -0.106458 -6.734757 2.650358 1.174809 -0.307205 0.116981 0.083983 -0.537892 0.205160 0.146667 -6.426046 2.548059 1.631816 16.258278 21.697671 3.988960 28.316577 5.031521 2.843902 -3.058045 -4.164852 -5.283681 -6.074298 -39.306539 -25.338650 -53.876017 -36.021552 105.280247 -31.610798 -2.859353 -13.814787 1.250256 3.667943 13.595082 24.733023 -24.147005 37.229916 40.852600 -25.768412 -30.532166 8.018352 -33.281982 20.620892 0.191344 10.456545 -11.323600 15.327811 43.331446 6.544112 -6.707053 -33.829837 1.348868 -0.374135 -0.851640 1.224177 7.339588 -12.344845 26.088006 13.469186 45.165933 10.135393 -2.965212 -9.167806 -13.727496 0.425458 1.038922 2.900590
30.768377 83.892677 379.536144 77.945371 -18.237481 -0.698901 -6.479728 2.581304 1.260285 -0.296440 0.107799 0.083625 -0.519441 0.189210 0.146194 -6.331170 2.402761 1.670520 16.104915 21.553548 4.033626 28.034305 4.741778 2.934715 -3.402246 -4.302653 -4.726686 -6.891071 -38.369438 -23.846769 -53.290723 -35.659875 105.709032 -32.918205 -4.344875 -13.759581 1.140429 3.486410 13.718535 23.916427 -24.579598 38.000165 40.883722 -27.558747 -32.147457 7.719895 -32.147735 19.607543 0.071442 10.734483 -10.950542 15.057390 43.307186 6.288000 -7.004708 -34.010506 1.396569 -0.433377 -0.857731 1.271108 7.321684 -13.527279 26.453941 12.812092 46.423555 10.136894 -3.226357 -9.492202 -13.570476 0.436540 0.618081 2.475468
